<svg id="Layer_1" data-name="Layer 1" xmlns="http://www.w3.org/2000/svg" viewBox="0 0 1000 1000"><defs><style>.cls-1{fill:#ed5fa6;}.cls-2{fill:#ff92c6;}.cls-3{fill:#ca337c;}.cls-4{fill:#6b0235;}.cls-5{fill:#9e034e;}.cls-10,.cls-11,.cls-12,.cls-13,.cls-14,.cls-15,.cls-16,.cls-17,.cls-18,.cls-19,.cls-20,.cls-6,.cls-7,.cls-8,.cls-9{fill:none;stroke-linecap:round;stroke-miterlimit:10;}.cls-10,.cls-11,.cls-12,.cls-13,.cls-14,.cls-15,.cls-16,.cls-17,.cls-18,.cls-19,.cls-6,.cls-7,.cls-8,.cls-9{stroke:#ffe9f4;stroke-width:6px;}.cls-7{stroke-dasharray:8.69 14.48;}.cls-8{stroke-dasharray:9.1 15.17;}.cls-9{stroke-dasharray:8.93 14.89;}.cls-10{stroke-dasharray:8.92 14.87;}.cls-11{stroke-dasharray:10.08 16.8;}.cls-12{stroke-dasharray:9.71 16.19;}.cls-13{stroke-dasharray:7.01 11.68;}.cls-14{stroke-dasharray:9.2 15.33;}.cls-15{stroke-dasharray:10.96 18.27;}.cls-16{stroke-dasharray:7.58 12.64;}.cls-17{stroke-dasharray:10.67 17.78;}.cls-18{stroke-dasharray:9.86 16.44;}.cls-19{stroke-dasharray:8.34 13.9;}.cls-20{stroke:#ca337c;stroke-width:8px;}</style></defs><title>Artboard 1 copy 2</title><rect class="cls-1" width="1000" height="1000"/><path class="cls-2" d="M693,512.87c-65.11,0-118.08-54.39-118.08-121.25s53-121.25,118.08-121.25,118.08,54.39,118.08,121.25S758.14,512.87,693,512.87Zm0-203.12c-43.4,0-78.71,36.73-78.71,81.88s35.31,81.88,78.71,81.88,78.71-36.73,78.71-81.87S736.43,309.74,693,309.74Z"/><rect class="cls-3" x="500" y="728" width="61.99" height="63.28"/><polygon class="cls-4" points="609.86 818.8 500 818.8 500 791.28 561.99 791.28 609.86 818.8"/><polygon class="cls-3" points="652.82 246.45 623.8 320.54 500 320.54 500 246.45 652.82 246.45"/><path class="cls-5" d="M664.71,212.08V237.3a9,9,0,0,1-8.87,9.15H500V212.08Z"/><path class="cls-4" d="M687.88,185.66,664.7,212.07H500V176.48H683.93C688.55,176.48,691,182.13,687.88,185.66Z"/><path class="cls-5" d="M630.33,834.9a21.89,21.89,0,0,1-2.93,11.39c-1.81,2.91-4.3,4.71-7.06,4.71H500V818.8H620.34C625.85,818.8,630.33,826,630.33,834.9Z"/><path class="cls-6" d="M286.85,470.78q-2.18-.6-4.3-1.32"/><path class="cls-7" d="M269.36,463.53c-24.47-13.9-41.1-40.92-41.1-71.91,0-45.15,35.31-81.88,78.71-81.88a75.76,75.76,0,0,1,33.6,7.84"/><path class="cls-6" d="M346.92,321.08q1.92,1.18,3.76,2.47"/><path class="cls-6" d="M362,284.39q-2-1.07-4-2.07"/><path class="cls-8" d="M344,276.49A114.78,114.78,0,0,0,307,270.37c-65.11,0-118.08,54.39-118.08,121.25,0,55.34,36.29,102.13,85.71,116.62"/><path class="cls-6" d="M281.95,510.13q2.19.49,4.41.89-.13-4.09-.13-8.2"/><path class="cls-6" d="M494.5,739.33q-2.25-.06-4.5-.18"/><path class="cls-9" d="M475.18,737.81c-106.39-13.77-189-114.86-189-235,0-157.07,40.27-182.28,90-182.28H478"/><line class="cls-6" x1="485.5" y1="320.54" x2="490" y2="320.54"/><path class="cls-5" d="M713.77,502.82c0,129.33-95.68,236.59-213.77,236.59V320.54H623.8C673.5,320.54,713.77,345.75,713.77,502.82Z"/><path class="cls-5" d="M713.77,502.82c0,50.28-14.46,97.23-39.09,135.83H500V399.77H705C710.63,425.38,713.77,459,713.77,502.82Z"/><line class="cls-6" x1="490" y1="246.45" x2="485.5" y2="246.45"/><line class="cls-10" x1="470.63" y1="246.45" x2="359.11" y2="246.45"/><polyline class="cls-6" points="351.68 246.45 347.18 246.45 348.82 250.64"/><line class="cls-11" x1="354.95" y1="266.29" x2="371.5" y2="308.53"/><line class="cls-6" x1="374.56" y1="316.35" x2="376.2" y2="320.54"/><line class="cls-6" x1="490" y1="212.08" x2="485.5" y2="212.08"/><line class="cls-12" x1="469.31" y1="212.08" x2="347.88" y2="212.08"/><polyline class="cls-6" points="339.79 212.08 335.29 212.08 335.29 216.58"/><path class="cls-13" d="M335.29,228.26v9A9.37,9.37,0,0,0,336,241"/><path class="cls-6" d="M339.85,245.3a8.61,8.61,0,0,0,4.3,1.15"/><line class="cls-6" x1="489" y1="176.48" x2="484.5" y2="176.48"/><path class="cls-14" d="M469.17,176.48H316.07c-4.62,0-7,5.65-3.94,9.18l15.15,17.26"/><line class="cls-6" x1="332.33" y1="208.69" x2="335.3" y2="212.07"/><line class="cls-6" x1="494.5" y1="791.28" x2="490" y2="791.28"/><line class="cls-15" x1="471.74" y1="791.28" x2="451.64" y2="791.28"/><polyline class="cls-6" points="442.51 791.28 438.01 791.28 438.01 786.78"/><line class="cls-16" x1="438.01" y1="774.14" x2="438.01" y2="740.02"/><line class="cls-6" x1="438.01" y1="733.7" x2="438.01" y2="729.2"/><line class="cls-6" x1="438.01" y1="791.28" x2="434.11" y2="793.52"/><line class="cls-17" x1="418.7" y1="802.38" x2="401.75" y2="812.13"/><polyline class="cls-6" points="394.04 816.56 390.14 818.8 394.64 818.8"/><line class="cls-18" x1="411.08" y1="818.8" x2="481.78" y2="818.8"/><line class="cls-6" x1="490" y1="818.8" x2="494.5" y2="818.8"/><line class="cls-6" x1="494.5" y1="851" x2="490" y2="851"/><path class="cls-19" d="M476.1,851H379.66c-2.76,0-5.25-1.8-7.06-4.71a21.89,21.89,0,0,1-2.93-11.39,23.42,23.42,0,0,1,1.74-9.09"/><path class="cls-6" d="M375.49,820.27a7,7,0,0,1,4.17-1.47"/><path class="cls-4" d="M713.77,502.82c0,50.28-14.46,97.23-39.09,135.83H500V399.77H705C710.63,425.38,713.77,459,713.77,502.82Z"/><path class="cls-20" d="M513.74,628.65c0-33.65,10.79-60.65,80.89-60.65s85.11-34,85.11-80"/><path class="cls-3" d="M631,541.69a7.6,7.6,0,0,1,10.75-10.75c3,3,4.8,15.55,4.8,15.55S633.92,544.66,631,541.69Z"/><path class="cls-3" d="M677.43,568.15a7.6,7.6,0,0,0,2.07-15.07c-4.16-.57-15.29,5.58-15.29,5.58S673.27,567.58,677.43,568.15Z"/><path class="cls-5" d="M699.69,525.85a7.6,7.6,0,0,0-10.75-10.75c-3,3-4.8,15.55-4.8,15.55S696.72,528.82,699.69,525.85Z"/><path class="cls-5" d="M666.57,484.45a7.6,7.6,0,0,0-10.75,10.75c3,3,15.55,4.8,15.55,4.8S669.54,487.42,666.57,484.45Z"/><path class="cls-3" d="M692.9,484.45a7.6,7.6,0,0,1,10.75,10.75c-3,3-15.55,4.8-15.55,4.8S689.93,487.42,692.9,484.45Z"/><path class="cls-3" d="M685.17,462.12a7.6,7.6,0,0,1,10.75,10.75c-3,3-15.55,4.8-15.55,4.8S682.21,465.09,685.17,462.12Z"/><path class="cls-2" d="M662.9,460.89a1.57,1.57,0,0,1-1.15-.47l-16.29-15.71a9,9,0,0,1-.72-.68q-.46-.47-1.45-1.71a22.84,22.84,0,0,1-1.77-2.54,15.76,15.76,0,0,1-1.4-3.16,11.48,11.48,0,0,1-.61-3.6q0-5.74,3.32-9t9.16-3.24a10.44,10.44,0,0,1,3.3.56,13.39,13.39,0,0,1,3.13,1.52q1.45,1,2.49,1.79a24.08,24.08,0,0,1,2,1.78,24.08,24.08,0,0,1,2-1.78q1-.83,2.49-1.79a13.39,13.39,0,0,1,3.13-1.52,10.44,10.44,0,0,1,3.3-.56q5.85,0,9.16,3.24t3.32,9q0,5.77-6,11.75l-16.26,15.66A1.57,1.57,0,0,1,662.9,460.89Z"/><path class="cls-5" d="M544.86,624a.65.65,0,0,1-.47-.19l-6.73-6.49a3.7,3.7,0,0,1-.3-.28q-.19-.19-.6-.71a9.44,9.44,0,0,1-.73-1.05,6.51,6.51,0,0,1-.58-1.31,4.74,4.74,0,0,1-.25-1.49,4.94,4.94,0,0,1,1.37-3.71,5.19,5.19,0,0,1,3.79-1.34,4.31,4.31,0,0,1,1.36.23,5.53,5.53,0,0,1,1.29.63q.6.39,1,.74a10,10,0,0,1,.82.73,10,10,0,0,1,.82-.73q.43-.34,1-.74a5.53,5.53,0,0,1,1.29-.63,4.31,4.31,0,0,1,1.36-.23,5.19,5.19,0,0,1,3.79,1.34,4.94,4.94,0,0,1,1.37,3.71q0,2.38-2.47,4.85l-6.72,6.47A.65.65,0,0,1,544.86,624Z"/></svg>